<svg xmlns="http://www.w3.org/2000/svg" xmlns:xlink="http://www.w3.org/1999/xlink" width="500" zoomAndPan="magnify" viewBox="0 0 375 374.999991" height="500" preserveAspectRatio="xMidYMid meet" version="1.0"><defs><clipPath id="8122362193"><path d="M 0 1.101562 L 375 1.101562 L 375 373.851562 L 0 373.851562 Z M 0 1.101562 " clip-rule="nonzero"/></clipPath></defs><rect x="-37.5" width="450" fill="#ffffff" y="-37.499999" height="449.999989" fill-opacity="0"/><rect x="-37.5" width="450" fill="#392417" y="-37.499999" height="449.999989" fill-opacity="0"/><g clip-path="url(#8122362193)"><path fill="#745E40" d="M 187.492188 1.117188 C 83.941406 1.117188 -0.00390625 85.0625 -0.00390625 188.617188 C -0.00390625 282.332031 68.75 359.984375 158.570312 373.894531 L 158.570312 246.914062 L 111.449219 246.914062 L 111.449219 189.0625 L 158.570312 189.0625 L 158.570312 152.980469 C 158.570312 105.460938 197.230469 66.800781 244.75 66.800781 L 272.507812 66.800781 L 272.507812 124.652344 L 244.75 124.652344 C 229.128906 124.652344 216.417969 137.359375 216.417969 152.980469 L 216.417969 189.0625 L 264.546875 189.0625 L 264.546875 246.914062 L 216.417969 246.914062 L 216.417969 373.894531 C 306.238281 359.984375 374.992188 282.332031 374.992188 188.617188 C 374.992188 85.0625 291.046875 1.117188 187.492188 1.117188 Z M 187.492188 1.117188 " fill-opacity="1" fill-rule="nonzero"/></g></svg>