<svg xmlns="http://www.w3.org/2000/svg" xmlns:xlink="http://www.w3.org/1999/xlink" width="500" zoomAndPan="magnify" viewBox="0 0 375 374.999991" height="500" preserveAspectRatio="xMidYMid meet" version="1.0"><rect x="-37.5" width="450" fill="#ffffff" y="-37.499999" height="449.999989" fill-opacity="0"/><rect x="-37.5" width="450" fill="#392417" y="-37.499999" height="449.999989" fill-opacity="0"/><path fill="#745E40" d="M 187.46875 -0.0078125 C 83.679688 -0.0078125 -0.0195312 84.53125 -0.0195312 187.480469 C -0.0195312 291.269531 84.515625 374.96875 187.46875 374.96875 C 291.253906 374.96875 374.957031 290.433594 374.957031 187.480469 C 374.957031 84.53125 291.253906 -0.0078125 187.46875 -0.0078125 Z M 303.8125 277.878906 C 298.789062 294.617188 276.191406 318.890625 255.265625 318.890625 L 253.589844 318.054688 C 222.621094 316.378906 179.933594 287.085938 140.59375 239.375 L 126.367188 221.800781 C 87.027344 174.089844 66.101562 127.21875 71.125 97.085938 C 74.472656 75.324219 106.277344 57.746094 124.691406 57.746094 C 133.898438 57.746094 137.246094 61.933594 138.085938 65.28125 C 148.128906 83.695312 161.519531 115.5 161.519531 127.21875 L 161.519531 128.890625 C 159.007812 134.75 153.988281 138.097656 149.800781 140.609375 C 143.941406 143.957031 140.59375 146.46875 139.757812 152.328125 C 139.757812 154 141.433594 163.207031 167.378906 195.015625 L 178.261719 208.40625 C 204.207031 239.375 212.578125 242.722656 214.25 242.722656 C 220.949219 243.5625 223.457031 241.050781 228.480469 236.027344 C 231.828125 231.84375 236.011719 227.65625 241.871094 226.820312 L 243.546875 226.820312 C 255.265625 229.332031 283.722656 247.746094 300.460938 261.976562 C 302.972656 262.8125 307.160156 266.996094 303.8125 277.878906 Z M 303.8125 277.878906 " fill-opacity="1" fill-rule="nonzero"/></svg>