<svg xmlns="http://www.w3.org/2000/svg" xmlns:xlink="http://www.w3.org/1999/xlink" width="500" zoomAndPan="magnify" viewBox="0 0 375 374.999991" height="500" preserveAspectRatio="xMidYMid meet" version="1.0"><defs><clipPath id="701327704e"><path d="M 1.144531 0.570312 L 374.644531 0.570312 L 374.644531 374.070312 L 1.144531 374.070312 Z M 1.144531 0.570312 " clip-rule="nonzero"/></clipPath></defs><rect x="-37.5" width="450" fill="#ffffff" y="-37.499999" height="449.999989" fill-opacity="0"/><rect x="-37.5" width="450" fill="#392417" y="-37.499999" height="449.999989" fill-opacity="0"/><g clip-path="url(#701327704e)"><path fill="#745E40" d="M 188.070312 374.421875 C 291.304688 374.421875 374.996094 290.734375 374.996094 187.496094 C 374.996094 84.261719 291.304688 0.570312 188.070312 0.570312 C 84.832031 0.570312 1.144531 84.261719 1.144531 187.496094 C 1.144531 290.734375 84.832031 374.421875 188.070312 374.421875 Z M 103.171875 107.972656 L 188.070312 175.890625 L 272.96875 107.972656 L 275.417969 105.929688 L 100.71875 105.929688 Z M 284.503906 121.957031 L 287.761719 119.238281 L 287.761719 260.003906 C 287.761719 265.007812 283.707031 269.066406 278.699219 269.066406 L 97.4375 269.066406 C 92.433594 269.066406 88.375 265.007812 88.375 260.003906 L 88.375 119.238281 L 91.636719 121.957031 L 91.777344 122.070312 L 182.40625 194.574219 C 185.71875 197.222656 190.421875 197.222656 193.730469 194.574219 L 284.363281 122.070312 Z M 284.503906 121.957031 " fill-opacity="1" fill-rule="evenodd"/></g></svg>