<svg xmlns="http://www.w3.org/2000/svg" xmlns:xlink="http://www.w3.org/1999/xlink" width="500" zoomAndPan="magnify" viewBox="0 0 375 374.999991" height="500" preserveAspectRatio="xMidYMid meet" version="1.0"><rect x="-37.5" width="450" fill="#ffffff" y="-37.499999" height="449.999989" fill-opacity="0"/><rect x="-37.5" width="450" fill="#392417" y="-37.499999" height="449.999989" fill-opacity="0"/><path fill="#F8F7FD" d="M 187.535156 82.503906 C 162.667969 82.503906 142.507812 102.660156 142.507812 127.527344 C 142.507812 152.394531 162.667969 172.550781 187.535156 172.550781 C 212.398438 172.550781 232.554688 152.394531 232.554688 127.527344 C 232.554688 102.660156 212.398438 82.503906 187.535156 82.503906 " fill-opacity="1" fill-rule="nonzero"/><path fill="#F8F7FD" d="M 187.535156 302.359375 C 187.535156 302.359375 103.035156 187.378906 103.035156 140.710938 C 103.035156 94.042969 140.867188 56.214844 187.535156 56.214844 C 234.195312 56.214844 272.03125 94.042969 272.03125 140.710938 C 272.03125 187.378906 187.535156 302.359375 187.535156 302.359375 Z M 187.535156 0.0117188 C 83.96875 0.0117188 0.0117188 83.96875 0.0117188 187.535156 C 0.0117188 291.097656 83.96875 375.050781 187.535156 375.050781 C 291.097656 375.050781 375.050781 291.097656 375.050781 187.535156 C 375.050781 83.96875 291.097656 0.0117188 187.535156 0.0117188 " fill-opacity="1" fill-rule="nonzero"/></svg>