<svg xmlns="http://www.w3.org/2000/svg" xmlns:xlink="http://www.w3.org/1999/xlink" width="500" zoomAndPan="magnify" viewBox="0 0 375 374.999991" height="500" preserveAspectRatio="xMidYMid meet" version="1.0"><defs><clipPath id="d917f42b90"><path d="M 13.285156 3.144531 L 362 3.144531 L 362 372.144531 L 13.285156 372.144531 Z M 13.285156 3.144531 " clip-rule="nonzero"/></clipPath></defs><g clip-path="url(#d917f42b90)"><path fill="#5d873d" d="M 289.972656 167.257812 C 288.796875 167.261719 287.625 167.289062 286.453125 167.347656 C 285.28125 167.40625 284.109375 167.496094 282.945312 167.613281 C 281.777344 167.726562 280.613281 167.875 279.449219 168.046875 C 278.289062 168.21875 277.132812 168.421875 275.984375 168.652344 C 274.832031 168.882812 273.6875 169.140625 272.550781 169.425781 C 271.410156 169.710938 270.28125 170.027344 269.160156 170.367188 C 268.035156 170.707031 266.921875 171.078125 265.816406 171.472656 C 264.710938 171.871094 263.617188 172.292969 262.535156 172.742188 C 261.449219 173.191406 260.378906 173.667969 259.316406 174.171875 C 258.257812 174.671875 257.207031 175.199219 256.175781 175.753906 C 255.140625 176.308594 254.117188 176.886719 253.113281 177.492188 C 252.105469 178.09375 251.113281 178.722656 250.140625 179.375 C 249.164062 180.027344 248.203125 180.703125 247.261719 181.402344 C 246.320312 182.101562 245.394531 182.824219 244.488281 183.566406 C 243.582031 184.3125 242.691406 185.078125 241.824219 185.867188 C 240.953125 186.65625 240.105469 187.464844 239.273438 188.292969 C 238.445312 189.125 237.636719 189.972656 236.847656 190.84375 C 236.058594 191.714844 235.292969 192.601562 234.546875 193.507812 C 233.804688 194.414062 233.082031 195.339844 232.382812 196.28125 C 231.683594 197.226562 231.007812 198.183594 230.355469 199.160156 C 229.703125 200.136719 229.074219 201.125 228.46875 202.132812 C 227.867188 203.140625 227.289062 204.160156 226.734375 205.195312 C 226.179688 206.230469 225.652344 207.277344 225.148438 208.335938 C 224.648438 209.398438 224.171875 210.472656 223.722656 211.554688 C 223.273438 212.640625 222.847656 213.734375 222.453125 214.835938 C 222.058594 215.941406 221.6875 217.054688 221.347656 218.179688 C 221.003906 219.300781 220.691406 220.433594 220.40625 221.570312 C 220.117188 222.707031 219.859375 223.851562 219.628906 225.003906 C 219.402344 226.15625 219.199219 227.3125 219.027344 228.472656 C 218.851562 229.632812 218.707031 230.796875 218.589844 231.964844 C 218.476562 233.132812 218.386719 234.300781 218.328125 235.472656 C 218.269531 236.644531 218.238281 237.820312 218.238281 238.992188 L 218.238281 295.355469 C 218.238281 297.199219 218.148438 299.042969 217.964844 300.878906 C 217.785156 302.714844 217.515625 304.539062 217.15625 306.351562 C 216.792969 308.160156 216.347656 309.949219 215.8125 311.714844 C 215.273438 313.484375 214.652344 315.21875 213.949219 316.925781 C 213.242188 318.628906 212.453125 320.296875 211.582031 321.925781 C 210.710938 323.550781 209.765625 325.132812 208.738281 326.667969 C 207.714844 328.203125 206.617188 329.683594 205.445312 331.109375 C 204.273438 332.539062 203.035156 333.902344 201.730469 335.210938 C 200.425781 336.515625 199.058594 337.753906 197.632812 338.921875 C 196.203125 340.09375 194.722656 341.191406 193.1875 342.21875 C 191.652344 343.242188 190.074219 344.191406 188.445312 345.0625 C 186.816406 345.933594 185.148438 346.71875 183.445312 347.425781 C 181.738281 348.132812 180.003906 348.753906 178.238281 349.289062 C 176.46875 349.828125 174.683594 350.273438 172.871094 350.632812 C 171.0625 350.996094 169.238281 351.265625 167.398438 351.445312 C 165.5625 351.625 163.722656 351.71875 161.875 351.71875 C 160.03125 351.71875 158.1875 351.625 156.351562 351.445312 C 154.515625 351.265625 152.691406 350.996094 150.878906 350.632812 C 149.070312 350.273438 147.28125 349.828125 145.515625 349.289062 C 143.75 348.753906 142.011719 348.132812 140.308594 347.425781 C 138.601562 346.71875 136.933594 345.933594 135.304688 345.0625 C 133.679688 344.191406 132.097656 343.242188 130.5625 342.21875 C 129.027344 341.191406 127.546875 340.09375 126.121094 338.921875 C 124.691406 337.753906 123.328125 336.515625 122.019531 335.210938 C 120.714844 333.902344 119.476562 332.539062 118.308594 331.109375 C 117.136719 329.683594 116.039062 328.203125 115.011719 326.667969 C 113.988281 325.132812 113.039062 323.550781 112.167969 321.925781 C 111.296875 320.296875 110.511719 318.628906 109.804688 316.925781 C 109.097656 315.21875 108.476562 313.484375 107.941406 311.714844 C 107.40625 309.949219 106.957031 308.160156 106.597656 306.351562 C 106.234375 304.539062 105.964844 302.714844 105.785156 300.878906 C 105.605469 299.042969 105.511719 297.199219 105.511719 295.355469 L 105.511719 207.214844 C 107.957031 206.910156 110.382812 206.496094 112.792969 205.976562 C 115.199219 205.453125 117.578125 204.824219 119.929688 204.085938 C 122.277344 203.347656 124.589844 202.507812 126.867188 201.558594 C 129.140625 200.613281 131.367188 199.566406 133.546875 198.417969 C 135.726562 197.273438 137.851562 196.027344 139.917969 194.6875 C 141.984375 193.347656 143.988281 191.917969 145.925781 190.398438 C 147.867188 188.878906 149.730469 187.273438 151.523438 185.585938 C 153.316406 183.898438 155.03125 182.128906 156.664062 180.285156 C 158.300781 178.441406 159.847656 176.53125 161.308594 174.546875 C 162.769531 172.5625 164.136719 170.515625 165.414062 168.410156 C 166.691406 166.304688 167.867188 164.144531 168.949219 161.929688 C 170.03125 159.714844 171.007812 157.457031 171.886719 155.15625 C 172.765625 152.855469 173.535156 150.515625 174.203125 148.144531 C 174.867188 145.773438 175.425781 143.375 175.875 140.953125 C 176.324219 138.53125 176.664062 136.09375 176.894531 133.640625 C 177.121094 131.1875 177.238281 128.730469 177.246094 126.269531 L 177.246094 75.03125 C 177.246094 74.355469 177.183594 73.691406 177.050781 73.03125 C 176.921875 72.371094 176.726562 71.730469 176.46875 71.105469 C 176.210938 70.484375 175.894531 69.894531 175.523438 69.335938 C 175.148438 68.773438 174.722656 68.257812 174.246094 67.78125 C 173.773438 67.304688 173.253906 66.878906 172.695312 66.507812 C 172.132812 66.132812 171.542969 65.816406 170.921875 65.558594 C 170.300781 65.304688 169.660156 65.109375 169 64.976562 C 168.339844 64.847656 167.671875 64.78125 167 64.78125 L 136.257812 64.78125 L 136.257812 13.542969 C 136.257812 12.871094 136.191406 12.203125 136.058594 11.542969 C 135.929688 10.882812 135.734375 10.242188 135.476562 9.621094 C 135.21875 9 134.902344 8.410156 134.53125 7.851562 C 134.15625 7.289062 133.730469 6.773438 133.253906 6.296875 C 132.777344 5.820312 132.261719 5.394531 131.703125 5.023438 C 131.140625 4.648438 130.550781 4.332031 129.929688 4.074219 C 129.308594 3.816406 128.667969 3.625 128.007812 3.492188 C 127.347656 3.359375 126.679688 3.296875 126.007812 3.296875 C 125.335938 3.296875 124.667969 3.359375 124.007812 3.492188 C 123.347656 3.625 122.707031 3.816406 122.085938 4.074219 C 121.464844 4.332031 120.875 4.648438 120.316406 5.023438 C 119.757812 5.394531 119.238281 5.820312 118.761719 6.296875 C 118.285156 6.773438 117.863281 7.289062 117.488281 7.851562 C 117.113281 8.410156 116.796875 9 116.542969 9.621094 C 116.285156 10.242188 116.089844 10.882812 115.957031 11.542969 C 115.828125 12.203125 115.761719 12.871094 115.761719 13.542969 L 115.761719 64.78125 L 74.769531 64.78125 L 74.769531 13.542969 C 74.769531 12.871094 74.703125 12.203125 74.574219 11.542969 C 74.441406 10.882812 74.246094 10.242188 73.988281 9.621094 C 73.734375 9 73.417969 8.410156 73.042969 7.851562 C 72.667969 7.289062 72.246094 6.773438 71.769531 6.296875 C 71.292969 5.820312 70.773438 5.394531 70.214844 5.023438 C 69.65625 4.648438 69.066406 4.332031 68.445312 4.074219 C 67.824219 3.816406 67.183594 3.625 66.523438 3.492188 C 65.863281 3.359375 65.195312 3.296875 64.523438 3.296875 C 63.847656 3.296875 63.183594 3.359375 62.523438 3.492188 C 61.863281 3.625 61.222656 3.816406 60.601562 4.074219 C 59.980469 4.332031 59.386719 4.648438 58.828125 5.023438 C 58.269531 5.394531 57.753906 5.820312 57.277344 6.296875 C 56.800781 6.773438 56.375 7.289062 56 7.851562 C 55.628906 8.410156 55.3125 9 55.054688 9.621094 C 54.796875 10.242188 54.601562 10.882812 54.472656 11.542969 C 54.339844 12.203125 54.273438 12.871094 54.273438 13.542969 L 54.273438 64.78125 L 23.53125 64.78125 C 22.859375 64.78125 22.191406 64.847656 21.53125 64.976562 C 20.871094 65.109375 20.230469 65.304688 19.609375 65.558594 C 18.988281 65.816406 18.398438 66.132812 17.835938 66.507812 C 17.277344 66.878906 16.757812 67.304688 16.285156 67.78125 C 15.808594 68.257812 15.382812 68.773438 15.007812 69.335938 C 14.636719 69.894531 14.320312 70.484375 14.0625 71.105469 C 13.804688 71.730469 13.609375 72.371094 13.480469 73.03125 C 13.347656 73.691406 13.285156 74.355469 13.285156 75.03125 L 13.285156 126.269531 C 13.292969 128.730469 13.410156 131.1875 13.636719 133.640625 C 13.867188 136.09375 14.207031 138.53125 14.65625 140.953125 C 15.105469 143.375 15.664062 145.773438 16.328125 148.144531 C 16.996094 150.515625 17.765625 152.855469 18.644531 155.15625 C 19.519531 157.457031 20.5 159.714844 21.582031 161.929688 C 22.664062 164.144531 23.839844 166.304688 25.117188 168.410156 C 26.394531 170.515625 27.761719 172.5625 29.222656 174.546875 C 30.683594 176.53125 32.230469 178.441406 33.867188 180.285156 C 35.5 182.128906 37.214844 183.898438 39.007812 185.585938 C 40.800781 187.273438 42.664062 188.878906 44.605469 190.398438 C 46.542969 191.917969 48.546875 193.347656 50.613281 194.6875 C 52.679688 196.027344 54.804688 197.273438 56.984375 198.417969 C 59.164062 199.566406 61.390625 200.613281 63.664062 201.558594 C 65.941406 202.507812 68.253906 203.347656 70.601562 204.085938 C 72.953125 204.824219 75.332031 205.453125 77.738281 205.976562 C 80.148438 206.496094 82.574219 206.910156 85.019531 207.214844 L 85.019531 295.355469 C 85.019531 296.613281 85.046875 297.871094 85.109375 299.125 C 85.171875 300.382812 85.265625 301.636719 85.386719 302.886719 C 85.511719 304.140625 85.664062 305.386719 85.851562 306.632812 C 86.035156 307.875 86.25 309.117188 86.496094 310.347656 C 86.738281 311.582031 87.015625 312.808594 87.320312 314.03125 C 87.625 315.25 87.960938 316.460938 88.328125 317.664062 C 88.691406 318.871094 89.085938 320.0625 89.511719 321.246094 C 89.933594 322.433594 90.386719 323.605469 90.867188 324.765625 C 91.351562 325.929688 91.859375 327.078125 92.398438 328.214844 C 92.933594 329.351562 93.5 330.476562 94.09375 331.585938 C 94.6875 332.695312 95.304688 333.789062 95.953125 334.867188 C 96.597656 335.945312 97.273438 337.007812 97.972656 338.054688 C 98.667969 339.101562 99.394531 340.128906 100.144531 341.140625 C 100.890625 342.148438 101.664062 343.140625 102.464844 344.113281 C 103.261719 345.085938 104.082031 346.039062 104.929688 346.96875 C 105.773438 347.902344 106.640625 348.8125 107.527344 349.703125 C 108.417969 350.589844 109.328125 351.457031 110.261719 352.304688 C 111.191406 353.148438 112.144531 353.96875 113.117188 354.765625 C 114.089844 355.566406 115.082031 356.339844 116.089844 357.085938 C 117.101562 357.835938 118.128906 358.5625 119.175781 359.261719 C 120.222656 359.957031 121.285156 360.632812 122.363281 361.277344 C 123.441406 361.925781 124.535156 362.542969 125.644531 363.136719 C 126.753906 363.730469 127.878906 364.296875 129.015625 364.832031 C 130.152344 365.371094 131.300781 365.882812 132.464844 366.363281 C 133.625 366.84375 134.796875 367.296875 135.984375 367.71875 C 137.167969 368.144531 138.359375 368.539062 139.566406 368.902344 C 140.769531 369.269531 141.980469 369.605469 143.199219 369.910156 C 144.421875 370.214844 145.648438 370.492188 146.882812 370.734375 C 148.113281 370.980469 149.355469 371.195312 150.597656 371.378906 C 151.84375 371.566406 153.089844 371.71875 154.34375 371.84375 C 155.59375 371.964844 156.847656 372.058594 158.105469 372.121094 C 159.359375 372.183594 160.617188 372.210938 161.875 372.210938 C 163.132812 372.210938 164.390625 372.183594 165.648438 372.121094 C 166.902344 372.058594 168.15625 371.964844 169.410156 371.84375 C 170.660156 371.71875 171.910156 371.566406 173.152344 371.378906 C 174.398438 371.195312 175.636719 370.980469 176.871094 370.734375 C 178.101562 370.492188 179.332031 370.214844 180.550781 369.910156 C 181.769531 369.605469 182.984375 369.269531 184.1875 368.902344 C 185.390625 368.539062 186.582031 368.144531 187.769531 367.71875 C 188.953125 367.296875 190.125 366.84375 191.289062 366.363281 C 192.449219 365.882812 193.597656 365.371094 194.738281 364.832031 C 195.875 364.296875 196.996094 363.730469 198.105469 363.136719 C 199.214844 362.542969 200.308594 361.925781 201.386719 361.277344 C 202.46875 360.632812 203.53125 359.957031 204.574219 359.261719 C 205.621094 358.5625 206.648438 357.835938 207.660156 357.085938 C 208.671875 356.339844 209.660156 355.566406 210.632812 354.765625 C 211.605469 353.96875 212.558594 353.148438 213.488281 352.304688 C 214.421875 351.457031 215.332031 350.589844 216.222656 349.703125 C 217.113281 348.8125 217.980469 347.902344 218.824219 346.96875 C 219.667969 346.039062 220.488281 345.085938 221.289062 344.113281 C 222.085938 343.140625 222.859375 342.148438 223.609375 341.140625 C 224.359375 340.128906 225.082031 339.101562 225.78125 338.054688 C 226.480469 337.007812 227.152344 335.945312 227.796875 334.867188 C 228.445312 333.789062 229.066406 332.695312 229.65625 331.585938 C 230.25 330.476562 230.816406 329.351562 231.355469 328.214844 C 231.890625 327.078125 232.402344 325.929688 232.882812 324.765625 C 233.363281 323.605469 233.816406 322.433594 234.242188 321.246094 C 234.664062 320.0625 235.058594 318.871094 235.425781 317.664062 C 235.789062 316.460938 236.125 315.25 236.429688 314.03125 C 236.734375 312.808594 237.011719 311.582031 237.257812 310.347656 C 237.503906 309.117188 237.71875 307.875 237.902344 306.632812 C 238.085938 305.386719 238.238281 304.140625 238.363281 302.886719 C 238.488281 301.636719 238.578125 300.382812 238.640625 299.125 C 238.703125 297.871094 238.734375 296.613281 238.734375 295.355469 L 238.734375 238.992188 C 238.734375 237.316406 238.816406 235.640625 238.980469 233.96875 C 239.144531 232.300781 239.390625 230.640625 239.71875 228.996094 C 240.046875 227.351562 240.453125 225.726562 240.941406 224.117188 C 241.425781 222.511719 241.992188 220.933594 242.632812 219.382812 C 243.277344 217.835938 243.992188 216.320312 244.785156 214.839844 C 245.574219 213.359375 246.4375 211.921875 247.367188 210.527344 C 248.300781 209.128906 249.300781 207.785156 250.363281 206.488281 C 251.429688 205.191406 252.554688 203.949219 253.742188 202.761719 C 254.925781 201.574219 256.167969 200.449219 257.464844 199.382812 C 258.765625 198.320312 260.109375 197.320312 261.503906 196.390625 C 262.902344 195.457031 264.339844 194.59375 265.816406 193.804688 C 267.296875 193.011719 268.8125 192.296875 270.363281 191.65625 C 271.914062 191.011719 273.492188 190.449219 275.097656 189.960938 C 276.703125 189.472656 278.328125 189.066406 279.976562 188.738281 C 281.621094 188.410156 283.28125 188.164062 284.949219 188 C 286.621094 187.835938 288.292969 187.753906 289.972656 187.753906 C 291.648438 187.753906 293.324219 187.835938 294.996094 188 C 296.664062 188.164062 298.320312 188.410156 299.96875 188.738281 C 301.613281 189.066406 303.238281 189.472656 304.84375 189.960938 C 306.453125 190.449219 308.03125 191.011719 309.578125 191.65625 C 311.128906 192.296875 312.644531 193.011719 314.125 193.804688 C 315.605469 194.59375 317.042969 195.457031 318.4375 196.390625 C 319.832031 197.320312 321.179688 198.320312 322.476562 199.382812 C 323.773438 200.449219 325.015625 201.574219 326.203125 202.761719 C 327.390625 203.949219 328.515625 205.191406 329.578125 206.488281 C 330.644531 207.785156 331.644531 209.128906 332.574219 210.527344 C 333.507812 211.921875 334.371094 213.359375 335.160156 214.839844 C 335.953125 216.320312 336.667969 217.835938 337.308594 219.382812 C 337.953125 220.933594 338.515625 222.511719 339.003906 224.117188 C 339.492188 225.726562 339.898438 227.351562 340.226562 228.996094 C 340.554688 230.640625 340.800781 232.300781 340.964844 233.96875 C 341.128906 235.640625 341.210938 237.316406 341.210938 238.992188 L 341.210938 300.480469 C 341.210938 301.152344 341.277344 301.816406 341.40625 302.476562 C 341.539062 303.136719 341.734375 303.777344 341.992188 304.402344 C 342.246094 305.023438 342.5625 305.613281 342.9375 306.171875 C 343.3125 306.730469 343.734375 307.25 344.210938 307.726562 C 344.6875 308.199219 345.207031 308.625 345.765625 309 C 346.324219 309.375 346.914062 309.6875 347.535156 309.945312 C 348.15625 310.203125 348.800781 310.398438 349.457031 310.53125 C 350.117188 310.660156 350.785156 310.726562 351.457031 310.726562 C 352.132812 310.726562 352.796875 310.660156 353.457031 310.53125 C 354.117188 310.398438 354.757812 310.203125 355.378906 309.945312 C 356 309.6875 356.59375 309.375 357.152344 309 C 357.710938 308.625 358.230469 308.199219 358.703125 307.726562 C 359.179688 307.25 359.605469 306.730469 359.980469 306.171875 C 360.351562 305.613281 360.667969 305.023438 360.925781 304.402344 C 361.183594 303.777344 361.378906 303.136719 361.507812 302.476562 C 361.640625 301.816406 361.707031 301.152344 361.707031 300.480469 L 361.707031 238.992188 C 361.703125 237.820312 361.675781 236.644531 361.617188 235.472656 C 361.554688 234.300781 361.46875 233.132812 361.351562 231.964844 C 361.234375 230.796875 361.089844 229.632812 360.917969 228.472656 C 360.746094 227.3125 360.542969 226.15625 360.3125 225.003906 C 360.082031 223.851562 359.824219 222.707031 359.539062 221.570312 C 359.253906 220.433594 358.9375 219.300781 358.597656 218.179688 C 358.257812 217.054688 357.886719 215.941406 357.492188 214.835938 C 357.09375 213.734375 356.671875 212.640625 356.222656 211.554688 C 355.773438 210.472656 355.296875 209.398438 354.792969 208.335938 C 354.292969 207.277344 353.765625 206.230469 353.210938 205.195312 C 352.65625 204.160156 352.078125 203.140625 351.472656 202.132812 C 350.871094 201.125 350.242188 200.136719 349.589844 199.160156 C 348.9375 198.183594 348.261719 197.226562 347.5625 196.28125 C 346.863281 195.339844 346.140625 194.414062 345.394531 193.507812 C 344.652344 192.601562 343.886719 191.714844 343.097656 190.84375 C 342.308594 189.972656 341.5 189.125 340.671875 188.292969 C 339.839844 187.464844 338.992188 186.65625 338.121094 185.867188 C 337.25 185.078125 336.363281 184.3125 335.457031 183.566406 C 334.550781 182.824219 333.625 182.101562 332.683594 181.402344 C 331.738281 180.703125 330.78125 180.027344 329.804688 179.375 C 328.828125 178.722656 327.839844 178.09375 326.832031 177.492188 C 325.824219 176.886719 324.804688 176.308594 323.769531 175.753906 C 322.734375 175.199219 321.6875 174.671875 320.625 174.171875 C 319.566406 173.667969 318.492188 173.191406 317.410156 172.742188 C 316.324219 172.292969 315.230469 171.871094 314.125 171.472656 C 313.023438 171.078125 311.910156 170.707031 310.785156 170.367188 C 309.664062 170.027344 308.53125 169.710938 307.394531 169.425781 C 306.257812 169.140625 305.113281 168.882812 303.960938 168.652344 C 302.808594 168.421875 301.652344 168.21875 300.492188 168.046875 C 299.332031 167.875 298.167969 167.726562 297 167.613281 C 295.832031 167.496094 294.664062 167.40625 293.492188 167.347656 C 292.320312 167.289062 291.144531 167.261719 289.972656 167.257812 Z M 289.972656 167.257812 " fill-opacity="1" fill-rule="nonzero"/></g></svg>