<svg xmlns="http://www.w3.org/2000/svg" xmlns:xlink="http://www.w3.org/1999/xlink" width="500" zoomAndPan="magnify" viewBox="0 0 375 374.999991" height="500" preserveAspectRatio="xMidYMid meet" version="1.0"><defs><clipPath id="c59b9e35f8"><path d="M 12.21875 39 L 362.46875 39 L 362.46875 210 L 12.21875 210 Z M 12.21875 39 " clip-rule="nonzero"/></clipPath><clipPath id="eab0fa7597"><path d="M 12.21875 204 L 362 204 L 362 274 L 12.21875 274 Z M 12.21875 204 " clip-rule="nonzero"/></clipPath><clipPath id="39b5aef59d"><path d="M 12.21875 269 L 362.46875 269 L 362.46875 339 L 12.21875 339 Z M 12.21875 269 " clip-rule="nonzero"/></clipPath></defs><path fill="#5d873d" d="M 224.4375 133.964844 C 225.539062 152.738281 241.640625 167.066406 260.417969 165.953125 C 279.199219 164.84375 293.511719 148.757812 292.402344 129.976562 C 291.308594 111.210938 275.210938 96.875 256.417969 97.976562 C 237.65625 99.082031 223.328125 115.199219 224.4375 133.964844 Z M 224.4375 133.964844 " fill-opacity="1" fill-rule="nonzero"/><g clip-path="url(#c59b9e35f8)"><path fill="#5d873d" d="M 22.199219 162.234375 C 22.308594 162.238281 33.53125 162.945312 41.796875 174.101562 C 51.328125 186.984375 71.210938 213.804688 103.53125 208.636719 C 117.703125 206.386719 129.835938 194.777344 141.589844 183.558594 C 153.738281 171.941406 166.320312 159.894531 178.164062 161.070312 C 187.316406 161.945312 194.675781 169.90625 203.183594 179.128906 C 215.65625 192.613281 231.105469 209.34375 258.671875 209.34375 C 259.277344 209.34375 259.890625 209.34375 260.503906 209.328125 C 286.210938 208.648438 301.671875 193.699219 315.308594 180.507812 C 327.425781 168.785156 336.914062 159.539062 351.839844 159.96875 C 357.25 160.246094 361.90625 155.816406 362.066406 150.320312 C 362.234375 144.832031 357.917969 140.261719 352.421875 140.097656 C 329.203125 139.378906 314.476562 153.652344 301.488281 166.214844 C 289.382812 177.914062 277.945312 188.976562 259.972656 189.445312 C 248.511719 189.746094 240.042969 185.878906 232.691406 180.144531 L 215.191406 149.9375 C 214.976562 148.554688 214.996094 147.015625 214.207031 145.800781 C 211.234375 141.203125 209.210938 136.425781 205.097656 133.46875 L 181.707031 90.816406 L 248.859375 67.070312 C 256.257812 64.464844 260.136719 56.347656 257.515625 48.949219 C 254.90625 41.5625 246.792969 37.675781 239.394531 40.296875 L 156.484375 69.59375 C 152.554688 70.980469 149.433594 74.03125 147.949219 77.921875 C 146.460938 81.816406 146.753906 86.164062 148.761719 89.820312 L 172.648438 133.382812 L 63.671875 169.90625 C 61.652344 167.433594 59.691406 164.871094 57.773438 162.273438 C 43.738281 143.324219 23.75 142.398438 22.902344 142.367188 C 17.355469 142.257812 12.804688 146.46875 12.609375 151.953125 C 12.414062 157.4375 16.703125 162.042969 22.199219 162.234375 Z M 232.65625 180.117188 C 230.039062 178.074219 227.542969 175.789062 225.121094 173.355469 C 227.554688 175.777344 230.039062 178.0625 232.65625 180.117188 Z M 232.65625 180.117188 " fill-opacity="1" fill-rule="nonzero"/></g><g clip-path="url(#eab0fa7597)"><path fill="#5d873d" d="M 301.425781 230.765625 C 289.320312 242.46875 277.894531 253.527344 259.910156 254 C 240.285156 254.507812 229.277344 242.703125 217.722656 230.179688 C 207.390625 219 196.703125 207.425781 180 205.824219 C 159.066406 203.8125 142.449219 219.710938 127.78125 233.726562 C 118.234375 242.847656 108.375 252.277344 100.335938 253.554688 C 81.488281 256.535156 68.9375 241.992188 57.703125 226.820312 C 43.671875 207.871094 23.679688 206.949219 22.828125 206.917969 C 17.351562 206.800781 12.875 210.933594 12.617188 216.375 C 12.355469 221.808594 16.566406 226.449219 22 226.785156 C 22.460938 226.816406 33.546875 227.617188 41.71875 238.65625 C 51.265625 251.542969 71.152344 278.367188 103.464844 273.195312 C 117.613281 270.933594 129.761719 259.332031 141.515625 248.113281 C 153.667969 236.492188 166.277344 224.417969 178.097656 225.625 C 187.25 226.5 194.59375 234.457031 203.105469 243.675781 C 215.582031 257.167969 231.023438 273.894531 258.601562 273.894531 C 259.203125 273.894531 259.816406 273.890625 260.417969 273.875 C 286.136719 273.195312 301.597656 258.253906 315.238281 245.066406 C 327.085938 233.609375 336.492188 224.507812 350.765625 224.507812 C 351.101562 224.507812 351.4375 224.511719 351.773438 224.519531 C 357.15625 224.785156 361.835938 220.363281 361.992188 214.875 C 362.164062 209.394531 357.839844 204.808594 352.351562 204.644531 C 329.265625 203.890625 314.417969 218.207031 301.425781 230.765625 Z M 301.425781 230.765625 " fill-opacity="1" fill-rule="nonzero"/></g><g clip-path="url(#39b5aef59d)"><path fill="#5d873d" d="M 352.425781 269.199219 C 329.207031 268.515625 314.480469 282.75 301.492188 295.3125 C 289.386719 307.023438 277.949219 318.070312 259.976562 318.546875 C 240.199219 319.011719 229.351562 307.25 217.792969 294.730469 C 207.457031 283.535156 196.773438 271.976562 180.066406 270.375 C 159.132812 268.375 142.515625 284.261719 127.847656 298.28125 C 118.304688 307.398438 108.4375 316.828125 100.40625 318.101562 C 81.546875 321.085938 69.011719 306.539062 57.773438 291.371094 C 43.738281 272.421875 23.75 271.492188 22.902344 271.472656 C 17.355469 271.363281 12.804688 275.5625 12.609375 281.050781 C 12.40625 286.539062 16.695312 291.140625 22.195312 291.347656 C 22.300781 291.347656 33.523438 292.046875 41.789062 303.207031 C 51.320312 316.085938 71.203125 342.902344 103.523438 337.738281 C 117.695312 335.488281 129.828125 323.886719 141.582031 312.660156 C 153.730469 301.042969 166.3125 288.980469 178.15625 290.164062 C 187.308594 291.046875 194.667969 299.011719 203.175781 308.230469 C 215.652344 321.730469 231.097656 338.449219 258.664062 338.449219 C 259.269531 338.449219 259.882812 338.445312 260.496094 338.429688 C 286.203125 337.75 301.664062 322.800781 315.300781 309.613281 C 327.417969 297.890625 336.90625 288.71875 351.832031 289.074219 C 357.242188 289.355469 361.898438 284.914062 362.058594 279.425781 C 362.238281 273.9375 357.921875 269.355469 352.425781 269.199219 Z M 352.425781 269.199219 " fill-opacity="1" fill-rule="nonzero"/></g></svg>